<svg xmlns="http://www.w3.org/2000/svg" xmlns:xlink="http://www.w3.org/1999/xlink" width="500" zoomAndPan="magnify" viewBox="0 0 375 374.999991" height="500" preserveAspectRatio="xMidYMid meet" version="1.0"><defs><g/><clipPath id="2203f735ff"><path d="M 15 111.585938 L 147 111.585938 L 147 262 L 15 262 Z M 15 111.585938 " clip-rule="nonzero"/></clipPath></defs><g clip-path="url(#2203f735ff)"><path fill="#fffaf9" d="M 76.527344 145.644531 C 77.683594 147.613281 79.421875 163.128906 79.867188 166.976562 L 66.269531 166.867188 C 66.851562 164.632812 67.972656 163.425781 68.195312 160.953125 C 66.269531 161.453125 59.417969 163.777344 58.035156 163.015625 Z M 68.027344 160.859375 Z M 68.027344 160.859375 Z M 15.054688 149.308594 L 15.019531 215.097656 C 19.632812 211.582031 24.5625 208.046875 29.15625 204.457031 C 31.640625 202.523438 33.863281 200.644531 36.347656 198.765625 C 38.703125 197 41.355469 194.617188 43.671875 193.335938 L 35.359375 212.679688 C 41.597656 208.773438 64.066406 194.097656 69.875 192.460938 L 68.027344 199.640625 C 70.792969 199.34375 78.898438 195.863281 85.453125 193.316406 C 95.089844 189.597656 95.726562 189.261719 105.476562 192.144531 L 126.339844 198.339844 C 130.730469 199.734375 133.25 202.820312 129.125 206.242188 C 126.320312 208.585938 122.101562 211.730469 120.289062 211.710938 C 111.585938 211.617188 72.097656 210.613281 67.578125 212.625 C 67.859375 212.808594 67.671875 212.753906 68.570312 213.164062 C 69.089844 213.386719 69.390625 213.480469 69.949219 213.683594 C 72.097656 214.410156 76.078125 215.320312 77.214844 216.289062 C 75.238281 219.394531 57.007812 246.234375 56.109375 248.523438 C 59.324219 249.730469 74.320312 258.882812 78.75 261.375 C 81.8125 263.085938 84.894531 259.90625 90.179688 256.949219 L 137.117188 229.976562 C 149.222656 223.019531 146.324219 226.796875 146.324219 211.023438 C 144.328125 213.886719 141.917969 216.769531 138.277344 219.523438 L 107.34375 237.363281 C 100.320312 241.398438 93.578125 245.285156 86.613281 249.265625 C 78.394531 253.972656 82.894531 253.601562 68.269531 245.621094 C 67.839844 245.378906 67.464844 245.191406 67.09375 244.949219 L 66.402344 244.390625 C 68.605469 240.765625 78.335938 229.71875 84.425781 223.859375 C 87.042969 221.328125 87.695312 220.117188 91.167969 219.878906 C 97.875 219.429688 115.414062 219.636719 120.324219 219.523438 C 129.140625 219.335938 142.871094 206.503906 146.289062 197.761719 C 141.132812 196.144531 133.289062 191.53125 127.835938 189.054688 C 117.242188 184.238281 118.234375 186.246094 113.824219 175.476562 C 111.882812 170.714844 107.8125 169.304688 102.226562 166.382812 C 100.394531 165.414062 99.125 165.0625 98.398438 163.3125 C 96.566406 158.847656 95.746094 144.042969 95.519531 138.554688 C 87.601562 141.179688 86.964844 142.851562 85.847656 150.535156 C 83.753906 144.0625 81.753906 137.738281 80.019531 131.152344 C 77.628906 132.457031 74.507812 135.375 72.324219 137.160156 L 23.667969 176.613281 C 23.03125 172.949219 23.421875 159.464844 23.421875 154.8125 C 23.421875 153.324219 25.273438 152.933594 26.488281 152.226562 L 51.628906 137.8125 C 55.121094 135.839844 79.253906 121.554688 80.316406 121.445312 C 81.886719 121.257812 117.375 142.183594 123.464844 145.699219 L 137.921875 153.773438 L 137.921875 186.488281 L 146.25 190.527344 L 146.324219 149.308594 C 144.757812 147.894531 140.386719 145.679688 138.40625 144.5625 C 135.773438 143.09375 132.914062 141.457031 130.242188 139.859375 C 124.753906 136.585938 119.296875 133.496094 113.621094 130.261719 C 110.183594 128.308594 81.417969 111.585938 80.671875 111.585938 L 31.378906 139.691406 C 28.542969 141.382812 16.492188 147.988281 15.054688 149.308594 Z M 15.054688 149.308594 " fill-opacity="1" fill-rule="evenodd"/></g><g fill="#ffffff" fill-opacity="1"><g transform="translate(166.640002, 244.689875)"><g><path d="M 29.144531 -52.457031 C 28.476562 -52.457031 27.8125 -51.960938 27.644531 -50.960938 L 20.152344 -13.238281 L 12.988281 -50.960938 C 12.824219 -51.960938 11.992188 -52.457031 11.324219 -52.457031 L 3.746094 -52.457031 C 3.082031 -52.457031 2.25 -51.960938 2.25 -50.960938 L 13.40625 -1 C 13.65625 -0.332031 14.320312 0 14.820312 0 L 25.894531 0 C 26.394531 0 27.0625 -0.332031 27.3125 -1 L 33.722656 -33.640625 L 40.136719 -1 C 40.386719 -0.332031 41.050781 0 41.550781 0 L 52.625 0 C 53.125 0 53.792969 -0.332031 54.042969 -1 L 65.199219 -50.960938 C 65.199219 -51.960938 64.367188 -52.457031 63.699219 -52.457031 L 56.121094 -52.457031 C 55.457031 -52.457031 54.625 -51.960938 54.457031 -50.960938 L 47.296875 -13.238281 L 39.800781 -50.960938 C 39.636719 -51.960938 38.96875 -52.457031 38.304688 -52.457031 Z M 29.144531 -52.457031 "/></g></g></g><g fill="#ffffff" fill-opacity="1"><g transform="translate(236.001183, 244.689875)"><g><path d="M 24.066406 -53.125 C 4.414062 -53.125 4.328125 -36.554688 4.328125 -36.554688 L 4.328125 -15.902344 C 4.328125 -15.902344 4.414062 0.667969 24.066406 0.667969 C 43.714844 0.667969 43.800781 -15.902344 43.800781 -15.902344 L 43.800781 -36.554688 C 43.800781 -36.554688 43.714844 -53.125 24.066406 -53.125 Z M 24.066406 -9.160156 C 21.398438 -9.160156 15.070312 -9.992188 15.070312 -18.234375 L 15.070312 -34.222656 C 15.070312 -42.464844 21.398438 -43.300781 24.066406 -43.300781 C 26.730469 -43.300781 33.058594 -42.464844 33.058594 -34.222656 L 33.058594 -18.234375 C 33.058594 -9.992188 26.730469 -9.160156 24.066406 -9.160156 Z M 24.066406 -9.160156 "/></g></g></g><g fill="#ffffff" fill-opacity="1"><g transform="translate(286.044518, 244.689875)"><g><path d="M 36.054688 0 C 37.054688 0 37.554688 -0.832031 37.554688 -1.5 L 37.554688 -8.328125 C 37.554688 -8.992188 37.054688 -9.824219 36.054688 -9.824219 L 15.902344 -9.824219 L 15.902344 -50.960938 C 15.902344 -51.960938 15.070312 -52.457031 14.40625 -52.457031 L 6.660156 -52.457031 C 5.996094 -52.457031 5.164062 -51.960938 5.164062 -50.960938 L 5.164062 -1.5 C 5.164062 -0.5 5.996094 0 6.660156 0 Z M 36.054688 0 "/></g></g></g><g fill="#ffffff" fill-opacity="1"><g transform="translate(329.842858, 244.689875)"><g><path d="M 6.660156 -52.457031 C 5.996094 -52.457031 5.164062 -51.960938 5.164062 -50.960938 L 5.164062 -1.5 C 5.164062 -0.5 5.996094 0 6.660156 0 L 14.40625 0 C 15.070312 0 15.902344 -0.5 15.902344 -1.5 L 15.902344 -19.316406 L 32.226562 -19.316406 C 33.222656 -19.316406 33.722656 -20.152344 33.722656 -20.816406 L 33.722656 -27.644531 C 33.722656 -28.3125 33.222656 -29.144531 32.226562 -29.144531 L 15.902344 -29.144531 L 15.902344 -42.632812 L 36.054688 -42.632812 C 37.054688 -42.632812 37.554688 -43.464844 37.554688 -44.132812 L 37.554688 -50.960938 C 37.554688 -51.625 37.054688 -52.457031 36.054688 -52.457031 Z M 6.660156 -52.457031 "/></g></g></g><g fill="#fffaf9" fill-opacity="1"><g transform="translate(166.41619, 180.676452)"><g><path d="M 3.636719 -14.039062 C 3.636719 -9.636719 5.550781 0.511719 19.207031 0.511719 C 22.269531 0.511719 26.226562 0 29.160156 -1.019531 C 29.671875 -1.210938 29.796875 -1.722656 29.796875 -1.914062 L 28.90625 -7.464844 C 28.714844 -7.976562 28.332031 -8.105469 28.011719 -8.105469 C 25.394531 -7.402344 22.714844 -7.019531 20.546875 -7.019531 C 16.589844 -7.019531 11.804688 -8.742188 11.804688 -14.804688 L 11.804688 -25.394531 C 11.804688 -31.457031 16.589844 -33.179688 20.546875 -33.179688 C 22.714844 -33.179688 25.394531 -32.796875 28.011719 -32.09375 C 28.332031 -32.09375 28.714844 -32.222656 28.90625 -32.734375 L 29.796875 -38.285156 C 29.796875 -38.476562 29.671875 -38.984375 29.160156 -39.175781 C 26.226562 -40.199219 22.269531 -40.710938 19.207031 -40.710938 C 5.550781 -40.710938 3.636719 -30.5625 3.636719 -26.160156 Z M 3.636719 -14.039062 "/></g></g></g><g fill="#fffaf9" fill-opacity="1"><g transform="translate(201.31822, 180.676452)"><g><path d="M 18.441406 -40.710938 C 3.382812 -40.710938 3.316406 -28.011719 3.316406 -28.011719 L 3.316406 -12.1875 C 3.316406 -12.1875 3.382812 0.511719 18.441406 0.511719 C 33.5 0.511719 33.5625 -12.1875 33.5625 -12.1875 L 33.5625 -28.011719 C 33.5625 -28.011719 33.5 -40.710938 18.441406 -40.710938 Z M 18.441406 -7.019531 C 16.398438 -7.019531 11.550781 -7.65625 11.550781 -13.972656 L 11.550781 -26.226562 C 11.550781 -32.542969 16.398438 -33.179688 18.441406 -33.179688 C 20.480469 -33.179688 25.332031 -32.542969 25.332031 -26.226562 L 25.332031 -13.972656 C 25.332031 -7.65625 20.480469 -7.019531 18.441406 -7.019531 Z M 18.441406 -7.019531 "/></g></g></g><g fill="#fffaf9" fill-opacity="1"><g transform="translate(239.665787, 180.676452)"><g><path d="M 16.207031 -32.667969 C 18.25 -32.667969 23.097656 -32.160156 23.097656 -25.84375 L 23.097656 -14.355469 C 23.097656 -8.039062 18.25 -7.527344 16.207031 -7.527344 L 12.1875 -7.527344 L 12.1875 -32.667969 Z M 16.398438 0 C 31.265625 0 31.328125 -12.761719 31.328125 -12.761719 L 31.328125 -27.4375 C 31.328125 -27.4375 31.265625 -40.199219 16.398438 -40.199219 L 5.105469 -40.199219 C 4.59375 -40.199219 3.957031 -39.816406 3.957031 -39.050781 L 3.957031 -1.148438 C 3.957031 -0.382812 4.59375 0 5.105469 0 Z M 16.398438 0 "/></g></g></g><g fill="#fffaf9" fill-opacity="1"><g transform="translate(275.78014, 180.676452)"><g><path d="M 12.1875 -7.527344 L 12.1875 -16.144531 L 24.695312 -16.144531 C 25.460938 -16.144531 25.84375 -16.78125 25.84375 -17.292969 L 25.84375 -22.523438 C 25.84375 -23.035156 25.460938 -23.671875 24.695312 -23.671875 L 12.1875 -23.671875 L 12.1875 -32.667969 L 27.628906 -32.667969 C 28.394531 -32.667969 28.777344 -33.308594 28.777344 -33.816406 L 28.777344 -39.050781 C 28.777344 -39.5625 28.394531 -40.199219 27.628906 -40.199219 L 5.105469 -40.199219 C 4.59375 -40.199219 3.957031 -39.816406 3.957031 -39.050781 L 3.957031 -1.148438 C 3.957031 -0.382812 4.59375 0 5.105469 0 L 27.628906 0 C 28.394531 0 28.777344 -0.636719 28.777344 -1.148438 L 28.777344 -6.378906 C 28.777344 -6.890625 28.394531 -7.527344 27.628906 -7.527344 Z M 12.1875 -7.527344 "/></g></g></g></svg>